<svg width="55" height="11" viewBox="0 0 55 11" fill="none" xmlns="http://www.w3.org/2000/svg">
<path d="M5.5 0L6.73483 3.57685H10.7308L7.49799 5.78747L8.73282 9.36432L5.5 7.15371L2.26718 9.36432L3.50201 5.78747L0.269189 3.57685H4.26517L5.5 0Z" fill="#F16722"/>
<path d="M16.5 0L17.7348 3.57685H21.7308L18.498 5.78747L19.7328 9.36432L16.5 7.15371L13.2672 9.36432L14.502 5.78747L11.2692 3.57685H15.2652L16.5 0Z" fill="#F16722"/>
<path d="M27.5 0L28.7348 3.57685H32.7308L29.498 5.78747L30.7328 9.36432L27.5 7.15371L24.2672 9.36432L25.502 5.78747L22.2692 3.57685H26.2652L27.5 0Z" fill="#F16722"/>
<path d="M38.5 0L39.7348 3.57685H43.7308L40.498 5.78747L41.7328 9.36432L38.5 7.15371L35.2672 9.36432L36.502 5.78747L33.2692 3.57685H37.2652L38.5 0Z" fill="#F16722"/>
<path d="M49.5 0L50.7348 3.57685H54.7308L51.498 5.78747L52.7328 9.36432L49.5 7.15371L46.2672 9.36432L47.502 5.78747L44.2692 3.57685H48.2652L49.5 0Z" fill="#F16722"/>
</svg>
