<svg width="55" height="13" viewBox="0 0 55 13" fill="none" xmlns="http://www.w3.org/2000/svg">
<path d="M5.5 0.399902L6.73483 4.69213H10.7308L7.49799 7.34487L8.73282 11.6371L5.5 8.98435L2.26718 11.6371L3.50201 7.34487L0.269189 4.69213H4.26517L5.5 0.399902Z" fill="#F16722"/>
<path d="M16.5 0.399902L17.7348 4.69213H21.7308L18.498 7.34487L19.7328 11.6371L16.5 8.98435L13.2672 11.6371L14.502 7.34487L11.2692 4.69213H15.2652L16.5 0.399902Z" fill="#F16722"/>
<path d="M27.5 0.399902L28.7348 4.69213H32.7308L29.498 7.34487L30.7328 11.6371L27.5 8.98435L24.2672 11.6371L25.502 7.34487L22.2692 4.69213H26.2652L27.5 0.399902Z" fill="#F16722"/>
<path d="M38.5 0.399902L39.7348 4.69213H43.7308L40.498 7.34487L41.7328 11.6371L38.5 8.98435L35.2672 11.6371L36.502 7.34487L33.2692 4.69213H37.2652L38.5 0.399902Z" fill="#F16722"/>
<path d="M49.5 0.399902L50.7348 4.69213H54.7308L51.498 7.34487L52.7328 11.6371L49.5 8.98435L46.2672 11.6371L47.502 7.34487L44.2692 4.69213H48.2652L49.5 0.399902Z" fill="#F16722"/>
</svg>
