<svg width="16" height="26" viewBox="0 0 16 26" fill="none" xmlns="http://www.w3.org/2000/svg">
<path d="M14.6694 9.4465C14.836 9.61316 14.9194 9.81555 14.9194 10.0536C14.9194 10.2917 14.836 10.4941 14.6694 10.6608L8.20508 17.1251L6.99079 18.3394C6.82413 18.506 6.62175 18.5894 6.38365 18.5894C6.14555 18.5894 5.94317 18.506 5.77651 18.3394L4.56222 17.1251L1.33008 13.8929C1.16341 13.7263 1.08008 13.5239 1.08008 13.2858C1.08008 13.0477 1.16341 12.8453 1.33008 12.6786L2.54436 11.4644C2.71103 11.2977 2.91341 11.2144 3.15151 11.2144C3.3896 11.2144 3.59198 11.2977 3.75865 11.4644L6.38365 14.0983L12.2408 8.23221C12.4075 8.06555 12.6098 7.98221 12.8479 7.98221C13.086 7.98221 13.2884 8.06555 13.4551 8.23221L14.6694 9.4465Z" fill="#071739"/>
</svg>
