<svg width="13" height="12" viewBox="0 0 13 12" fill="none" xmlns="http://www.w3.org/2000/svg">
<path d="M8.27148 7.41406C8.27148 7.41406 8.36914 7.31641 8.56445 7.12109C8.75977 6.92578 8.85742 6.55208 8.85742 6C8.85742 5.44792 8.66211 4.97656 8.27148 4.58594C7.88086 4.19531 7.40951 4 6.85742 4C6.30534 4 5.83398 4.19531 5.44336 4.58594C5.05273 4.97656 4.85742 5.44792 4.85742 6C4.85742 6.55208 5.05273 7.02344 5.44336 7.41406C5.83398 7.80469 6.30534 8 6.85742 8C7.40951 8 7.88086 7.80469 8.27148 7.41406ZM9.03711 3.82031C9.03711 3.82031 9.18685 3.97005 9.48633 4.26953C9.78581 4.56901 9.93555 5.14583 9.93555 6C9.93555 6.85417 9.63607 7.58073 9.03711 8.17969C8.43815 8.77865 7.71159 9.07812 6.85742 9.07812C6.00326 9.07812 5.27669 8.77865 4.67773 8.17969C4.07878 7.58073 3.7793 6.85417 3.7793 6C3.7793 5.14583 4.07878 4.41927 4.67773 3.82031C5.27669 3.22135 6.00326 2.92188 6.85742 2.92188C7.71159 2.92188 8.43815 3.22135 9.03711 3.82031ZM10.5684 2.28906C10.5684 2.28906 10.6035 2.32422 10.6738 2.39453C10.7441 2.46484 10.7793 2.59896 10.7793 2.79688C10.7793 2.99479 10.709 3.16406 10.5684 3.30469C10.4277 3.44531 10.2585 3.51562 10.0605 3.51562C9.86263 3.51562 9.69336 3.44531 9.55273 3.30469C9.41211 3.16406 9.3418 2.99479 9.3418 2.79688C9.3418 2.59896 9.41211 2.42969 9.55273 2.28906C9.69336 2.14844 9.86263 2.07812 10.0605 2.07812C10.2585 2.07812 10.4277 2.14844 10.5684 2.28906ZM7.45508 1.07422C7.45508 1.07422 7.36458 1.07487 7.18359 1.07617C7.0026 1.07747 6.89388 1.07812 6.85742 1.07812C6.82096 1.07812 6.62174 1.07682 6.25977 1.07422C5.89779 1.07161 5.62305 1.07161 5.43555 1.07422C5.24805 1.07682 4.99674 1.08464 4.68164 1.09766C4.36654 1.11068 4.09831 1.13672 3.87695 1.17578C3.6556 1.21484 3.4694 1.26302 3.31836 1.32031C3.05794 1.42448 2.82878 1.57552 2.63086 1.77344C2.43294 1.97135 2.2819 2.20052 2.17773 2.46094C2.12044 2.61198 2.07227 2.79818 2.0332 3.01953C1.99414 3.24089 1.9681 3.50911 1.95508 3.82422C1.94206 4.13932 1.93424 4.39062 1.93164 4.57812C1.92904 4.76562 1.92904 5.04036 1.93164 5.40234C1.93424 5.76432 1.93555 5.96354 1.93555 6C1.93555 6.03646 1.93424 6.23568 1.93164 6.59766C1.92904 6.95964 1.92904 7.23438 1.93164 7.42188C1.93424 7.60938 1.94206 7.86068 1.95508 8.17578C1.9681 8.49089 1.99414 8.75911 2.0332 8.98047C2.07227 9.20182 2.12044 9.38802 2.17773 9.53906C2.2819 9.79948 2.43294 10.0286 2.63086 10.2266C2.82878 10.4245 3.05794 10.5755 3.31836 10.6797C3.4694 10.737 3.6556 10.7852 3.87695 10.8242C4.09831 10.8633 4.36654 10.8893 4.68164 10.9023C4.99674 10.9154 5.24805 10.9232 5.43555 10.9258C5.62305 10.9284 5.89779 10.9284 6.25977 10.9258C6.62174 10.9232 6.82096 10.9219 6.85742 10.9219C6.89388 10.9219 7.0931 10.9232 7.45508 10.9258C7.81706 10.9284 8.0918 10.9284 8.2793 10.9258C8.4668 10.9232 8.7181 10.9154 9.0332 10.9023C9.34831 10.8893 9.61654 10.8633 9.83789 10.8242C10.0592 10.7852 10.2454 10.737 10.3965 10.6797C10.6569 10.5755 10.8861 10.4245 11.084 10.2266C11.2819 10.0286 11.4329 9.79948 11.5371 9.53906C11.5944 9.38802 11.6426 9.20182 11.6816 8.98047C11.7207 8.75911 11.7467 8.49089 11.7598 8.17578C11.7728 7.86068 11.7806 7.60938 11.7832 7.42188C11.7858 7.23438 11.7858 6.95964 11.7832 6.59766C11.7806 6.23568 11.7793 6.03646 11.7793 6C11.7793 5.96354 11.7806 5.76432 11.7832 5.40234C11.7858 5.04036 11.7858 4.76562 11.7832 4.57812C11.7806 4.39062 11.7728 4.13932 11.7598 3.82422C11.7467 3.50911 11.7207 3.24089 11.6816 3.01953C11.6426 2.79818 11.5944 2.61198 11.5371 2.46094C11.4329 2.20052 11.2819 1.97135 11.084 1.77344C10.8861 1.57552 10.6569 1.42448 10.3965 1.32031C10.2454 1.26302 10.0592 1.21484 9.83789 1.17578C9.61654 1.13672 9.34831 1.11068 9.0332 1.09766C8.7181 1.08464 8.4668 1.07682 8.2793 1.07422C8.0918 1.07161 7.81706 1.07161 7.45508 1.07422ZM12.8184 3.52344C12.8444 3.98177 12.8574 4.80729 12.8574 6C12.8574 7.19271 12.8444 8.01823 12.8184 8.47656C12.7663 9.5599 12.4434 10.3984 11.8496 10.9922C11.2559 11.5859 10.4173 11.9089 9.33398 11.9609C8.87565 11.987 8.05013 12 6.85742 12C5.66471 12 4.83919 11.987 4.38086 11.9609C3.29753 11.9089 2.45898 11.5859 1.86523 10.9922C1.27148 10.3984 0.948568 9.5599 0.896484 8.47656C0.870443 8.01823 0.857422 7.19271 0.857422 6C0.857422 4.80729 0.870443 3.98177 0.896484 3.52344C0.948568 2.4401 1.27148 1.60156 1.86523 1.00781C2.45898 0.414062 3.29753 0.0911458 4.38086 0.0390625C4.83919 0.0130208 5.66471 0 6.85742 0C8.05013 0 8.87565 0.0130208 9.33398 0.0390625C10.4173 0.0911458 11.2559 0.414062 11.8496 1.00781C12.4434 1.60156 12.7663 2.4401 12.8184 3.52344Z" fill="white"/>
</svg>
