<svg width="12" height="14" viewBox="0 0 12 14" fill="none" xmlns="http://www.w3.org/2000/svg">
<path d="M7.64355 9.71875V11.3672C7.64355 11.7161 7.54199 11.8906 7.33887 11.8906C7.21908 11.8906 7.10189 11.8333 6.9873 11.7188V9.36719C7.10189 9.2526 7.21908 9.19531 7.33887 9.19531C7.54199 9.19531 7.64355 9.36979 7.64355 9.71875ZM10.2842 9.72656V10.0859H9.58105V9.72656C9.58105 9.3724 9.69824 9.19531 9.93262 9.19531C10.167 9.19531 10.2842 9.3724 10.2842 9.72656ZM2.7373 8.02344H3.57324V7.28906H1.13574V8.02344H1.95605V12.4688H2.7373V8.02344ZM4.9873 12.4688H5.68262V8.60938H4.9873V11.5625C4.83105 11.7812 4.68262 11.8906 4.54199 11.8906C4.44824 11.8906 4.39355 11.8359 4.37793 11.7266C4.37272 11.7109 4.37012 11.6198 4.37012 11.4531V8.60938H3.6748V11.6641C3.6748 11.9193 3.69564 12.1094 3.7373 12.2344C3.7998 12.4271 3.95085 12.5234 4.19043 12.5234C4.44043 12.5234 4.70605 12.3646 4.9873 12.0469V12.4688ZM8.33887 11.3125V9.77344C8.33887 9.39323 8.31543 9.13542 8.26855 9C8.18001 8.70833 7.99512 8.5625 7.71387 8.5625C7.45345 8.5625 7.21126 8.70312 6.9873 8.98438V7.28906H6.29199V12.4688H6.9873V12.0938C7.22168 12.3802 7.46387 12.5234 7.71387 12.5234C7.99512 12.5234 8.18001 12.3802 8.26855 12.0938C8.31543 11.9531 8.33887 11.6927 8.33887 11.3125ZM10.9795 11.2344V11.1328H10.2686C10.2686 11.3984 10.2633 11.5573 10.2529 11.6094C10.2165 11.7969 10.1123 11.8906 9.94043 11.8906C9.70085 11.8906 9.58105 11.7109 9.58105 11.3516V10.6719H10.9795V9.86719C10.9795 9.45573 10.9092 9.15365 10.7686 8.96094C10.5654 8.69531 10.2894 8.5625 9.94043 8.5625C9.58626 8.5625 9.30762 8.69531 9.10449 8.96094C8.95866 9.15365 8.88574 9.45573 8.88574 9.86719V11.2188C8.88574 11.6302 8.96126 11.9323 9.1123 12.125C9.31543 12.3906 9.59668 12.5234 9.95605 12.5234C10.3311 12.5234 10.6123 12.3854 10.7998 12.1094C10.8936 11.9688 10.9482 11.8281 10.9639 11.6875C10.9743 11.6406 10.9795 11.4896 10.9795 11.2344ZM6.22949 4.10156V2.46094C6.22949 2.10156 6.11751 1.92188 5.89355 1.92188C5.6696 1.92188 5.55762 2.10156 5.55762 2.46094V4.10156C5.55762 4.46615 5.6696 4.64844 5.89355 4.64844C6.11751 4.64844 6.22949 4.46615 6.22949 4.10156ZM11.8467 9.96875C11.8467 11.1875 11.779 12.099 11.6436 12.7031C11.5706 13.0104 11.4196 13.2682 11.1904 13.4766C10.9613 13.6849 10.6956 13.8047 10.3936 13.8359C9.43522 13.9453 7.98991 14 6.05762 14C4.12533 14 2.68001 13.9453 1.72168 13.8359C1.4196 13.8047 1.15267 13.6849 0.920898 13.4766C0.689128 13.2682 0.539388 13.0104 0.47168 12.7031C0.336263 12.1198 0.268555 11.2083 0.268555 9.96875C0.268555 8.75 0.336263 7.83854 0.47168 7.23438C0.544596 6.92708 0.695638 6.66927 0.924805 6.46094C1.15397 6.2526 1.4222 6.13021 1.72949 6.09375C2.68262 5.98958 4.12533 5.9375 6.05762 5.9375C7.98991 5.9375 9.43522 5.98958 10.3936 6.09375C10.6956 6.13021 10.9626 6.2526 11.1943 6.46094C11.4261 6.66927 11.5758 6.92708 11.6436 7.23438C11.779 7.81771 11.8467 8.72917 11.8467 9.96875ZM4.0498 0H4.84668L3.90137 3.11719V5.23438H3.12012V3.11719C3.0472 2.73177 2.88835 2.17969 2.64355 1.46094C2.45085 0.924479 2.28158 0.4375 2.13574 0H2.96387L3.51855 2.05469L4.0498 0ZM6.94043 2.60156V3.96875C6.94043 4.39062 6.86751 4.69792 6.72168 4.89062C6.52376 5.15625 6.24772 5.28906 5.89355 5.28906C5.5446 5.28906 5.27116 5.15625 5.07324 4.89062C4.92741 4.69271 4.85449 4.38542 4.85449 3.96875V2.60156C4.85449 2.1849 4.92741 1.88021 5.07324 1.6875C5.27116 1.42188 5.5446 1.28906 5.89355 1.28906C6.24772 1.28906 6.52376 1.42188 6.72168 1.6875C6.86751 1.88021 6.94043 2.1849 6.94043 2.60156ZM9.55762 1.33594V5.23438H8.84668V4.80469C8.57064 5.1276 8.30241 5.28906 8.04199 5.28906C7.80241 5.28906 7.64876 5.19271 7.58105 5C7.53939 4.875 7.51855 4.67969 7.51855 4.41406V1.33594H8.22949V4.20312C8.22949 4.375 8.2321 4.46615 8.2373 4.47656C8.25293 4.59115 8.30762 4.64844 8.40137 4.64844C8.54199 4.64844 8.69043 4.53646 8.84668 4.3125V1.33594H9.55762Z" fill="white"/>
</svg>
