<svg width="14" height="12" viewBox="0 0 14 12" fill="none" xmlns="http://www.w3.org/2000/svg">
<path d="M13.6694 2.4465C13.836 2.61316 13.9194 2.81555 13.9194 3.05364C13.9194 3.29174 13.836 3.49412 13.6694 3.66078L7.20508 10.1251L5.99079 11.3394C5.82413 11.506 5.62175 11.5894 5.38365 11.5894C5.14555 11.5894 4.94317 11.506 4.77651 11.3394L3.56222 10.1251L0.330078 6.89293C0.163411 6.72626 0.0800781 6.52388 0.0800781 6.28578C0.0800781 6.04769 0.163411 5.84531 0.330078 5.67864L1.54436 4.46436C1.71103 4.29769 1.91341 4.21436 2.15151 4.21436C2.3896 4.21436 2.59198 4.29769 2.75865 4.46436L5.38365 7.09828L11.2408 1.23221C11.4075 1.06555 11.6098 0.982212 11.8479 0.982212C12.086 0.982212 12.2884 1.06555 12.4551 1.23221L13.6694 2.4465Z" fill="#071739"/>
</svg>
