<svg width="13" height="12" viewBox="0 0 13 12" fill="none" xmlns="http://www.w3.org/2000/svg">
<path d="M3.38477 3.88281V11.625H0.806641V3.88281H3.38477ZM3.54883 1.49219C3.55404 1.8724 3.42253 2.1901 3.1543 2.44531C2.88607 2.70052 2.5332 2.82812 2.0957 2.82812H2.08008C1.65299 2.82812 1.30924 2.70052 1.04883 2.44531C0.788411 2.1901 0.658203 1.8724 0.658203 1.49219C0.658203 1.10677 0.792318 0.78776 1.06055 0.535156C1.32878 0.282552 1.67904 0.15625 2.11133 0.15625C2.54362 0.15625 2.88997 0.282552 3.15039 0.535156C3.41081 0.78776 3.54362 1.10677 3.54883 1.49219ZM12.6582 7.1875V11.625H10.0879V7.48438C10.0879 6.9375 9.98242 6.50911 9.77148 6.19922C9.56055 5.88932 9.23112 5.73438 8.7832 5.73438C8.45508 5.73438 8.18034 5.82422 7.95898 6.00391C7.73763 6.18359 7.57227 6.40625 7.46289 6.67188C7.4056 6.82812 7.37695 7.03906 7.37695 7.30469V11.625H4.80664C4.81706 9.54688 4.82227 7.86198 4.82227 6.57031C4.82227 5.27865 4.81966 4.50781 4.81445 4.25781L4.80664 3.88281H7.37695V5.00781H7.36133C7.46549 4.84115 7.57227 4.69531 7.68164 4.57031C7.79102 4.44531 7.93815 4.3099 8.12305 4.16406C8.30794 4.01823 8.53451 3.90495 8.80273 3.82422C9.07096 3.74349 9.36914 3.70312 9.69727 3.70312C10.5879 3.70312 11.304 3.9987 11.8457 4.58984C12.3874 5.18099 12.6582 6.04688 12.6582 7.1875Z" fill="white"/>
</svg>
