<svg width="13" height="10" viewBox="0 0 13 10" fill="none" xmlns="http://www.w3.org/2000/svg">
<path d="M12.6143 1.1875C12.2653 1.69792 11.8434 2.13281 11.3486 2.49219C11.3538 2.5651 11.3564 2.67448 11.3564 2.82031C11.3564 3.4974 11.2575 4.17318 11.0596 4.84766C10.8617 5.52214 10.5609 6.16927 10.1572 6.78906C9.75358 7.40885 9.27311 7.95703 8.71582 8.43359C8.15853 8.91016 7.48665 9.29036 6.7002 9.57422C5.91374 9.85807 5.07259 10 4.17676 10C2.7653 10 1.47363 9.6224 0.301758 8.86719C0.484049 8.88802 0.687174 8.89844 0.911133 8.89844C2.08301 8.89844 3.12728 8.53906 4.04395 7.82031C3.49707 7.8099 3.00749 7.64193 2.5752 7.31641C2.1429 6.99089 1.84603 6.57552 1.68457 6.07031C1.85645 6.09635 2.0153 6.10938 2.16113 6.10938C2.38509 6.10938 2.60645 6.08073 2.8252 6.02344C2.24186 5.90365 1.75879 5.61328 1.37598 5.15234C0.993164 4.69141 0.801758 4.15625 0.801758 3.54688V3.51562C1.15592 3.71354 1.53613 3.82031 1.94238 3.83594C1.59863 3.60677 1.3252 3.30729 1.12207 2.9375C0.918945 2.56771 0.817383 2.16667 0.817383 1.73438C0.817383 1.27604 0.931966 0.851562 1.16113 0.460938C1.79134 1.23698 2.55827 1.85807 3.46191 2.32422C4.36556 2.79036 5.33301 3.04948 6.36426 3.10156C6.32259 2.90365 6.30176 2.71094 6.30176 2.52344C6.30176 1.82552 6.54785 1.23047 7.04004 0.738281C7.53223 0.246094 8.12728 0 8.8252 0C9.55436 0 10.1689 0.265625 10.6689 0.796875C11.2367 0.6875 11.7705 0.484375 12.2705 0.1875C12.0778 0.786458 11.708 1.25 11.1611 1.57812C11.6455 1.52604 12.1299 1.39583 12.6143 1.1875Z" fill="white"/>
</svg>
