<svg width="14" height="12" viewBox="0 0 14 12" fill="none" xmlns="http://www.w3.org/2000/svg">
<path d="M13.5893 2.4465C13.756 2.61316 13.8393 2.81555 13.8393 3.05364C13.8393 3.29174 13.756 3.49412 13.5893 3.66078L7.125 10.1251L5.91071 11.3394C5.74405 11.506 5.54167 11.5894 5.30357 11.5894C5.06548 11.5894 4.8631 11.506 4.69643 11.3394L3.48214 10.1251L0.25 6.89293C0.0833333 6.72626 0 6.52388 0 6.28578C0 6.04769 0.0833333 5.84531 0.25 5.67864L1.46429 4.46436C1.63095 4.29769 1.83333 4.21436 2.07143 4.21436C2.30952 4.21436 2.5119 4.29769 2.67857 4.46436L5.30357 7.09828L11.1607 1.23221C11.3274 1.06555 11.5298 0.982212 11.7679 0.982212C12.006 0.982212 12.2083 1.06555 12.375 1.23221L13.5893 2.4465Z" fill="#071739"/>
</svg>
